<?xml version="1.0" encoding="UTF-8"?>
<!DOCTYPE svg PUBLIC "-//W3C//DTD SVG 1.1//EN" "http://www.w3.org/Graphics/SVG/1.1/DTD/svg11.dtd">
<!-- Creator: CorelDRAW -->
<svg xmlns="http://www.w3.org/2000/svg" xml:space="preserve" width="1970px" height="1080px" version="1.1" style="shape-rendering:geometricPrecision; text-rendering:geometricPrecision; image-rendering:optimizeQuality; fill-rule:evenodd; clip-rule:evenodd"
viewBox="0 0 1970 1080"
 xmlns:xlink="http://www.w3.org/1999/xlink"
 xmlns:xodm="http://www.corel.com/coreldraw/odm/2003">
 <defs>
  <style type="text/css">
   <![CDATA[
    .fil0 {fill:white}
    .fil19 {fill:#303134}
    .fil20 {fill:#333333}
    .fil4 {fill:#23A5AC;fill-rule:nonzero}
    .fil10 {fill:#29333A;fill-rule:nonzero}
    .fil12 {fill:#2B3137;fill-rule:nonzero}
    .fil14 {fill:#2B3F4E;fill-rule:nonzero}
    .fil18 {fill:#2CA48B;fill-rule:nonzero}
    .fil8 {fill:#2F3336;fill-rule:nonzero}
    .fil5 {fill:#303033;fill-rule:nonzero}
    .fil1 {fill:#303134;fill-rule:nonzero}
    .fil17 {fill:#3090B9;fill-rule:nonzero}
    .fil6 {fill:#313235;fill-rule:nonzero}
    .fil9 {fill:#338D9E;fill-rule:nonzero}
    .fil7 {fill:#437BB9;fill-rule:nonzero}
    .fil13 {fill:#51768B;fill-rule:nonzero}
    .fil2 {fill:#5E656C;fill-rule:nonzero}
    .fil15 {fill:#65818E;fill-rule:nonzero}
    .fil11 {fill:#7FA0A9;fill-rule:nonzero}
    .fil3 {fill:#869098;fill-rule:nonzero}
    .fil16 {fill:#E2E8ED;fill-rule:nonzero}
    .fil21 {fill:#E73131;fill-rule:nonzero}
   ]]>
  </style>
 </defs>
 <g id="Capa_x0020_1">
  <metadata id="CorelCorpID_0Corel-Layer"/>
  <g id="_105553228987456">
   <path class="fil0" d="M933.71 542.61c4.27,5.5 7.32,11.98 9.13,19.4 3,12.25 3.16,24.35 -0.21,36.11 0.93,11.33 0.44,22.7 0.92,34.05 0.12,2.72 -1.19,5.11 -3.54,6.47 -2.35,1.36 -5.08,1.31 -7.38,-0.14 -3.55,-2.24 -4.6,-4.3 -6.57,-7.7 -0.85,-1.47 -1.71,-2.94 -2.56,-4.42 -4.76,3.45 -10.15,6.19 -15.96,8.46 -11.88,4.65 -24.34,6.24 -37.01,6.76 -4.5,0.19 -9,0.4 -13.51,0.57 0.04,14.68 -0.03,29.37 0.05,44.06 0.04,6.75 -4.03,10.92 -10.83,10.83 -10.89,-0.13 -21.78,-0.05 -32.67,-0.05 -3.92,0 -7.12,-3.2 -7.12,-7.13 0,-2.48 -0.01,-4.97 0,-7.46 0.06,-48.76 0.11,-97.52 0.2,-146.29 0.01,-11.12 2.5,-14.14 13.62,-15.5 12.11,-1.49 24.25,-2.65 36.41,-2.85 -4.88,-8.04 -9.66,-16.13 -14.33,-24.3 -6.02,-0.2 -12.09,-0.68 -18.22,-1.23 -3.74,-0.34 -7.47,-0.67 -11.21,-1 -3.69,-0.33 -6.49,-3.4 -6.49,-7.1 0,-1.66 0,-3.31 0,-4.96 0,-9.45 0,-18.89 0.01,-28.33 -6.71,-5.27 -13.79,-10.09 -20.96,-14.72 -10.3,-6.64 -22.01,-11.05 -33.26,-15.78 -1.35,-0.56 -2.44,-1.46 -3.19,-2.59 -1.78,1.32 -3.61,2.57 -5.55,3.71 -27.64,16.14 -56.6,29.7 -87.48,38.41 -11.53,3.25 -23.47,4.46 -35,7.54 -19.13,5.1 -37.64,12.31 -54.52,22.75 -9.75,6.03 -19.37,12.46 -25.79,22.21 -1.5,2.28 -3.96,3.45 -6.67,3.17 -0.22,-0.02 -0.43,-0.05 -0.64,-0.09 2.2,9.25 3.82,18.65 4.7,28.29 3.64,40.17 -1.19,78.96 -16.09,116.55 -17.08,43.11 -44.47,78.53 -80.96,107 -19.95,15.57 -42.14,27.44 -65.6,36.78 -12.23,4.87 -24.61,9.33 -37.31,13.03l-9.17 2.53c-6.3,1.63 -12.59,3.06 -18.92,4.27 -3.42,0.65 -6.75,-1.2 -7.99,-4.46 -1.25,-3.25 -0.01,-6.84 2.96,-8.65 16.71,-10.1 35.33,-17.97 50.97,-29.61 16.16,-12.02 32.03,-24.86 43.42,-41.7 18.83,-27.83 31.16,-58.8 39.38,-91.27 5.4,-21.34 11.66,-42.32 21.94,-61.9 3.83,-7.29 6.03,-15.14 6.5,-23.34 -1.34,1.03 -2.96,1.51 -4.74,1.4 -7.21,-0.47 -18.3,0.57 -29.14,2.6 1.49,1.28 2.38,3.14 2.43,5.23 0.06,3.09 -1.75,5.76 -4.64,6.83 -7.9,2.95 -15.68,6.19 -23.71,8.78 -35.12,11.32 -71.27,15.91 -108.05,12.21 -18.01,-1.82 -35.12,-6.78 -51.02,-15.52 -2.49,-1.38 -7.68,-6.01 -10.3,-6.31 -0.78,-0.08 -1.52,-0.29 -2.19,-0.59 9.58,6.47 19.32,12.7 28.99,19.04 2.69,1.77 3.85,4.99 2.9,8.07 -0.96,3.08 -3.73,5.09 -6.96,5.02 -2.98,-0.06 -6.01,-0.22 -8.98,-0.17 -10.92,0.19 -22.56,-0.09 -31.8,6.67 -5.5,4.02 -10.36,8.72 -14.71,13.94 -15.6,18.7 -27.87,39.9 -43.71,58.47 -9.41,11.03 -17.44,22.22 -28.99,31.32 -2.05,1.61 -4.61,1.98 -7.03,1.02 -2.43,-0.96 -4.04,-2.98 -4.43,-5.56 -0.87,-5.78 -1.88,-11.55 -2.6,-17.35 -1.56,-12.54 -1.99,-25 0.62,-37.44 7.3,-34.84 26.15,-62.75 53.43,-85.19 8.93,-7.35 18.76,-13.56 29.09,-18.74 6.07,-3.04 11.26,-2.16 15.49,3.55 4.61,6.22 10.31,11.62 16.7,16 -0.95,-0.92 -1.64,-2.12 -1.97,-3.5 -0.7,-2.99 0.49,-5.96 3.07,-7.63 4.12,-2.66 8.3,-5.22 12.52,-7.72 -15.11,-0.13 -30.37,-1.45 -44.71,-3.78 -16.08,-2.61 -41.77,-8.36 -54.02,-19.74 -2.44,-2.28 -2.99,-5.83 -1.34,-8.73 0.56,-1 1.33,-1.82 2.22,-2.42 -5.81,0.37 -11.63,0.88 -17.33,1.99 -4.42,0.86 -8.45,-0.19 -10.87,-4.33 -4.64,-7.92 -9.69,-15.55 -13.67,-23.84 -5.48,-11.46 2.59,-20.24 14.4,-19.46 6.33,0.43 12.15,2.21 18.19,4 13.85,4.12 27.53,7.6 40.48,14.11 2.78,-18.15 6.58,-36.17 13.09,-53.39 8.71,-23.08 18.39,-45.22 35.75,-63.19 3.12,-5.63 7.4,-9.66 11.8,-14.33 3.65,-4.19 7.3,-8.38 10.95,-12.57 0.11,-0.13 0.22,-0.26 0.34,-0.39 0.1,-0.1 0.2,-0.2 0.3,-0.29 7.21,-7.16 14.39,-14.3 22.49,-20.47 8.38,-8.16 16.88,-15.73 27.6,-20.67 6.32,-4.84 13.18,-7.28 20.21,-10.87 13.7,-7 28.15,-12.29 42.97,-16.37 7.15,-1.97 14.37,-3.66 21.64,-5.14 25.11,-5.14 50.91,-5.78 76.4,-3.68 34.66,0.6 67.7,6.96 97.54,25.39 10.69,5.64 20.81,12.22 29.44,20.74 10.38,10.24 8.04,22.23 -5.82,27.19 -9.46,3.38 -19.25,5.01 -28.96,7.4 -4.28,1.32 -8.3,3.35 -12.17,5.56 -3.71,2.11 -6.54,4.44 -9.8,6.36 1.28,0.7 2.56,1.6 3.87,2.83 0.19,0.17 0.36,0.35 0.53,0.54 22.25,-15.39 47.65,-20.66 76.35,-15.99 2.81,0.46 4.97,2.4 5.72,5.14 0.76,2.75 -0.1,5.52 -2.28,7.35 -11.96,10.08 -26.27,19.33 -36.2,31.79 1.52,-0.31 2.98,-0.8 4.44,-1.6 11.81,-6.51 21.19,-16.01 29.79,-26.24 15.18,-18.06 31.5,-34.28 53.04,-44.62 28.67,-13.76 56.45,-13.87 82.15,6.35 7.75,6.1 12.41,12.89 13.69,21.07 1.56,-0.17 3.3,0.06 5.19,0.75 12.15,4.39 24.25,8.96 35.78,14.81 1.14,-5.61 5.09,-8.72 11.64,-9.38 18.6,-1.89 36.98,-3.32 55.49,0.26 30.79,5.94 49.53,27.33 51.49,58.6 0.72,11.53 -0.22,22.79 -4.18,33.71 -2.97,8.17 -7.2,15.08 -12.64,20.78 6.18,12.24 11.55,25.13 16.17,38.62 1.68,4.91 3.25,9.86 4.72,14.89l2.62 9.54c0.6,2.3 1.18,4.6 1.73,6.91zm-41.88 30.99c-1.21,-1.94 -2.43,-3.87 -3.65,-5.8 -1.07,-0.87 -2.38,-1.56 -3.95,-2.04 -8.74,-2.69 -17.96,-2.95 -27.07,-2.79 0.04,5.76 0,11.51 0,17.27 0,0.28 -0.02,0.56 -0.05,0.83 0,5.19 0,10.38 0,15.57 9.06,0.04 18.24,-0.29 26.9,-3.07 4.86,-1.55 7.54,-4.25 8.22,-9.36 0.4,-2.96 0.6,-6.35 -0.06,-9.28 -0.1,-0.46 -0.22,-0.9 -0.34,-1.33zm-43.97 -177.85c13.31,10.96 25.06,23.21 35.39,36.62 1.22,-6.83 0.43,-13.65 -1.52,-20.37 -2.84,-9.74 -9.07,-15.06 -19.05,-16.64 -4.81,-0.77 -9.88,-0.65 -14.83,-0.78 0,0.39 0.01,0.78 0.01,1.17zm-690.42 126.53c6.25,1.21 13.11,-0.12 19.55,0.86 14.86,2.26 29.78,3.35 44.64,2.81 -11.26,-1.25 -21.97,-4.33 -31.83,-10.78 -2.68,-1.75 -4.83,-3.77 -6.38,-6.08 -9.06,10.47 -11.26,12.25 -25.98,13.19zm282.08 -67.32c7.15,-3.06 13.88,-6.71 20.19,-10.99 -0.98,0.56 -1.97,1.12 -2.96,1.66 -5.74,3.12 -11.48,6.24 -17.23,9.33zm27.26 87.51c-0.3,-3.81 -0.71,-7.6 -1.2,-11.39 -1.39,-10.79 -3.6,-21.44 -10.86,-29.95 -2.19,-2.56 -4.55,-3.9 -7.86,-4.28 0.01,0.01 0.01,0.02 0.01,0.03 1.33,5.21 4.27,10.16 6.87,14.81 5.49,9.84 9.93,20.07 13.04,30.78zm679.84 -128.29c0,-16.02 0,-32.03 0,-48.05 0,-3.93 3.2,-7.13 7.12,-7.13 8.99,0 17.98,0 26.97,0 3.93,0 7.13,3.2 7.13,7.13 0.01,39.54 0,79.09 0,118.64 0,3.92 -3.2,7.13 -7.13,7.13 -7.01,0 -14.01,0.21 -21.02,-0.2 -4.42,-0.26 -7.68,-3.79 -9.74,-7.39 -11.51,-20.09 -23.9,-39.69 -38.11,-57.97 0,19.68 0,39.35 0,59.02 0,3.92 -3.2,7.12 -7.12,7.12 -7.82,0 -15.65,0.12 -23.47,-0.15 -4.94,-0.18 -9.03,-5.43 -9.23,-10.15 -0.36,-8.56 -0.54,-17.13 -0.56,-25.7 -0.07,-28.77 -0.02,-57.54 -0.12,-86.3 -0.02,-7.28 4.06,-11.52 11.38,-11.64 19.36,-0.32 21.74,0.11 33.89,15.6 10.29,13.13 20.12,26.61 30.01,40.04zm-217.53 10.96c-0.35,-22.32 7.72,-41.43 25.25,-55.53 12.85,-10.34 30.58,-14.76 46.86,-13.68 18.37,1.23 35.38,9.32 46.65,24.11 22.41,29.44 19.99,77.95 -10.5,101.04 -21.35,16.17 -46.22,17.71 -70.48,7.25 -21.89,-9.45 -33.5,-27.86 -36.74,-51.02 -0.54,-3.88 -0.7,-7.78 -1.02,-11.69 -0.02,-0.17 -0.02,-0.31 -0.02,-0.48zm92.22 -0.16c-1.1,-5.32 -1.81,-10.99 -3.6,-16.06 -5.83,-16.51 -26.96,-20.59 -38.96,-8.05 -10.7,11.19 -10.38,39.01 0.54,49.98 8.28,8.31 24.05,8.12 32.34,-0.08 7.15,-7.08 8.92,-16.17 9.68,-25.79zm838.66 1.15c-0.02,25.52 -8.75,47.3 -32.08,59.84 -18.54,9.96 -41.42,11.6 -60.93,3.46 -21.88,-9.12 -35.1,-28.27 -38.5,-51.45 -2.13,-14.54 -0.83,-28.81 4.75,-42.47 12.89,-31.58 46.86,-45.81 79.08,-37.36 27.52,7.23 45.8,30.69 47.63,58.9 0.2,3.04 0.05,6.04 0.05,9.08zm-41.24 -1.35c-0.35,-3.55 -0.57,-7.08 -1.12,-10.62 -1.71,-11.03 -10.62,-19.61 -21.78,-20.58 -10.77,-0.93 -20.3,6.35 -23.89,16.28 -3.35,9.29 -3.72,18.85 -1.19,28.38 2.45,9.21 8.41,16.22 17.95,18.21 7.31,1.53 16.04,-0.33 21.39,-5.76 7,-7.1 8.42,-16.31 8.64,-25.91zm-344.59 -29.42c0.13,3.19 0.07,6.37 -0.02,9.56 11.81,-0.09 23.62,0.09 35.42,-0.09 7.78,-0.12 12.31,4.45 11.8,12.26 -0.27,4.13 -0.21,8.27 -0.03,12.4 0.31,7.1 -4.06,11.42 -11.1,11.35 -12.06,-0.12 -24.13,0.06 -36.19,-0.1 0.19,5.04 0.24,10.08 0.05,15.12 14.81,-0.21 29.63,-0.06 44.44,-0.06 1.88,0 3.77,0 5.65,0 3.93,0 7.13,3.2 7.13,7.13 0,6.37 0.01,12.74 0,19.11 0,6.5 -4.5,10.55 -10.88,10.5 -23.64,-0.16 -47.28,-0.24 -70.92,-0.35 -3.11,-0.01 -6.23,-0.01 -9.35,-0.01 -3.92,0 -7.13,-3.2 -7.13,-7.13 0,-39.62 0,-79.24 0,-118.86 0,-3.71 2.81,-6.77 6.5,-7.1 1.98,-0.18 3.87,-0.46 5.87,-0.47 21.99,-0.03 43.98,-0.02 65.97,-0.02 1.03,0 2.06,0.03 3.09,0.08 10.68,0.54 13.32,3.61 13.17,14.22 -0.05,3.45 -0.1,6.91 0.11,10.36 0.47,7.55 -4.15,12.09 -11.61,12.05 -13.99,-0.07 -27.98,0.15 -41.97,0.05zm-217.09 20.65c-8.01,22.82 -15.97,45.66 -24,68.47 -1.34,3.82 -4.51,7.54 -8.86,7.64 -8.97,0.22 -17.94,0.14 -26.91,0.14 -2.33,0 -4.33,-1.01 -5.72,-2.88 -1.39,-1.86 -1.78,-4.07 -1.11,-6.3 0.56,-1.87 1.05,-3.76 1.7,-5.6 12.88,-36.21 26.27,-72.26 42.19,-107.26 3.7,-8.14 9.17,-12.38 18.39,-11.62 5.03,0.41 10.05,-0.16 15.15,0.39 4.37,0.47 9.03,3.84 10.73,7.9 10.6,25.27 21.13,50.56 31.29,76 5.18,12.98 9.56,26.27 14.3,39.41 0.76,2.12 0.54,4.27 -0.65,6.18 -1.19,1.92 -3.01,3.07 -5.25,3.32 -2.02,0.23 -3.93,0.61 -5.98,0.62 -5.57,0.02 -11.23,-0.42 -16.78,-0.02 -8.38,0.6 -13.4,-3.51 -15.93,-11.24 -5.98,-18.18 -12.27,-36.25 -18.59,-54.32 -1.27,-3.63 -2.61,-7.23 -3.97,-10.83zm135.91 -20.64c0.14,28.08 0,56.17 0.13,84.26 0.03,8.39 -4.57,13.38 -13.17,12.98 -6.73,-0.32 -13.5,-0.07 -20.24,-0.07 -3.92,0 -7.12,-3.2 -7.12,-7.13 0,-1.84 0,-3.68 0,-5.52 0,-28.15 -0.09,-56.29 0.09,-84.44 -9.67,0.22 -19.34,0.05 -29.01,0.05 -3.93,0 -7.13,-3.2 -7.13,-7.13 0,-7.4 0,-14.8 0,-22.2 0,-3.73 2.85,-6.82 6.58,-7.11 1.85,-0.14 3.64,-0.4 5.52,-0.4 29.12,-0.05 58.25,-0.09 87.38,-0.09 10.62,0.01 13.56,3.15 13.54,13.7 0,3.84 -0.18,7.7 -0.04,11.54 0.26,7.31 -4.01,11.77 -11.39,11.59 -8.38,-0.2 -16.76,0.03 -25.14,-0.03zm283.11 59.49c13.83,0.06 27.67,0.17 41.5,0.03 7.56,-0.07 11.86,4.39 11.49,11.93 -0.26,5.18 0.07,10.36 -0.28,15.56 -0.33,4.82 -5.02,9.88 -9.97,9.91 -25.43,0.19 -50.86,0.16 -76.29,0.16 -3.92,0 -7.12,-3.21 -7.12,-7.13 0,-39.93 0,-79.87 0,-119.8 0,-3.92 3.2,-7.13 7.12,-7.13 8.81,0 17.62,0 26.43,0 3.93,0 7.13,3.21 7.13,7.13 0,29.78 -0.01,59.56 -0.01,89.34zm-97.37 -0.03c14.15,-0.09 28.31,0.08 42.46,0.18 1.39,0.01 2.64,0.25 4.01,0.39 3.64,0.38 6.38,3.42 6.38,7.09 0,7.57 0,15.14 0,22.7 0,3.93 -3.2,7.13 -7.13,7.13 -6.38,0 -12.75,0 -19.13,0 -18.13,0 -36.27,-0.27 -54.39,0.17 -8.86,0.22 -13,-4.27 -12.98,-12.92 0.07,-33.92 -0.05,-67.84 -0.1,-101.76 0,-0.88 0.03,-1.76 0.01,-2.64 -0.06,-4.67 -0.4,-9.82 3.24,-13.39 3.58,-3.5 8.83,-3.18 13.45,-3.17 5.62,0.02 11.25,0.01 16.87,0.01 3.92,0 7.12,3.19 7.13,7.11 0,3.13 -0.01,6.26 0,9.39 0.08,26.57 0.25,53.14 0.18,79.71zm-312.61 183.36c-2.01,7.52 -4.93,14.81 -9.15,21.83 -13.87,23.1 -34.92,35.62 -61.41,39.07 -16.27,2.11 -32.36,0.87 -47.72,-5.14 -30.22,-11.83 -47.05,-35.03 -52.42,-66.61 -2.67,-15.69 -2.42,-31.49 1.79,-46.89 8.9,-32.55 29.67,-54.52 62.98,-62.02 30.7,-6.92 59.4,-1.13 82.87,20.49 14.98,13.8 22.81,31.66 25.81,51.57 0.74,4.87 0.89,9.63 1.3,14.51 0.03,0.27 0.04,0.51 0.03,0.79 -0.21,8.09 -0.81,16.01 -2.17,23.71 1.3,-1.19 2.92,-1.81 4.75,-1.81l33.29 0c3.17,0 5.85,1.98 6.8,4.99 1.76,5.58 4.78,10.18 9.36,13.83 4.35,3.46 9.15,5.14 14.72,5.14 4.52,0 8.69,-1.14 12.52,-3.55 3.96,-2.49 7.04,-5.82 9.34,-9.88 2.38,-4.23 3.49,-8.77 3.49,-13.62l0 -90.76c0,-0.48 0.04,-0.89 0.13,-1.37 1.06,-5.42 4.38,-9.63 9.01,-12.55 4.24,-2.67 8.93,-4.23 13.92,-4.6 0.19,-0.02 0.35,-0.02 0.53,-0.02l16.01 0c3.92,0 7.12,3.2 7.12,7.12l0 102.18c0,13.41 -3.09,26.14 -9.71,37.81 -6.37,11.25 -15.03,20.42 -26,27.27 -11.08,6.92 -23.29,10.29 -36.36,10.29 -11.82,0 -23,-2.81 -33.33,-8.55 -10.14,-5.65 -18.55,-13.37 -25.15,-22.93 -6.33,-9.16 -10.39,-19.39 -12.35,-30.3zm-48.46 -30.52c0.27,-7.58 -0.5,-15 -2.98,-22.2 -4.74,-13.79 -16.53,-22.46 -31.03,-23.23 -15.48,-0.81 -28.35,7.39 -34,21.81 -5.28,13.44 -5,27.5 -1.99,41.43 3.74,17.34 18.55,29.47 36.52,28 10.81,-0.89 19.55,-4.92 25.7,-14.07 6.3,-9.39 8.24,-20.02 7.78,-31.18 -0.01,-0.2 -0.01,-0.36 0,-0.56zm494.6 -47.33c-0.54,1.55 -1.56,2.79 -3.03,3.68l-18.25 11.04 -10.64 6.52c-3.1,1.9 -7.09,1.18 -9.34,-1.69 -3.75,-4.8 -8.34,-8.58 -13.77,-11.35 -5.48,-2.78 -11.27,-4.11 -17.41,-4.11 -7.37,0 -14.07,1.86 -20.32,5.74 -6.35,3.95 -11.25,9.2 -14.93,15.7 -3.82,6.75 -5.56,14.02 -5.56,21.76 0,7.77 1.72,15.1 5.56,21.87 3.68,6.5 8.59,11.77 14.93,15.71 6.24,3.88 12.97,5.7 20.32,5.7 6.85,0 13.24,-1.6 19.18,-5.04 5.94,-3.43 10.76,-8.06 14.48,-13.83 2.08,-3.24 6.38,-4.24 9.68,-2.25l7.81 4.73 20.94 12.75c3.34,2.04 4.41,6.43 2.38,9.78 -5.15,8.51 -11.57,16.08 -19.17,22.5 -7.62,6.43 -16.12,11.46 -25.45,15.01 -9.58,3.65 -19.6,5.41 -29.85,5.41 -11.94,0 -23.49,-2.36 -34.38,-7.25 -10.64,-4.78 -20.06,-11.41 -28.09,-19.87 -8.13,-8.55 -14.36,-18.45 -18.8,-29.38 -4.66,-11.45 -6.85,-23.5 -6.85,-35.84 0,-12.31 2.21,-24.31 6.85,-35.71 4.45,-10.95 10.67,-20.87 18.78,-29.46 8.03,-8.49 17.46,-15.15 28.11,-19.93 10.9,-4.89 22.44,-7.23 34.38,-7.23 14.49,0 28.26,3.34 40.91,10.43 11.32,6.35 20.84,14.75 28.52,25.1 0,-9.3 0,-18.61 0,-27.91 0,-3.73 2.84,-6.81 6.55,-7.11 2.57,-0.2 5.07,-0.57 7.65,-0.57 41.48,-0.08 82.95,-0.13 124.43,-0.12 4.6,0.01 9.63,-0.2 13.11,3.39 3.41,3.52 3.15,8.54 3.14,13.08 -0.01,5.51 -0.24,11.04 -0.05,16.56 0.31,8.66 -4.38,13.57 -13.13,13.36 -12.97,-0.32 -25.94,0.11 -38.91,-0.07 0.22,41.01 0.02,82.03 0.19,123.04 0.05,10.22 -5.05,15.95 -15.58,15.45 -9.62,-0.46 -19.31,-0.11 -28.93,-0.11 -3.93,0 -7.13,-3.2 -7.13,-7.13 0,-2.62 0,-5.23 0,-7.85 0,-41 -0.13,-82 0.13,-123 0,-0.1 0,-0.21 0,-0.33 -0.11,0 -0.22,0 -0.3,0.01 -14.68,0.42 -29.37,0.13 -44.04,0.13 -1.54,0 -2.96,-0.48 -4.12,-1.31zm-177.13 34.53c0.68,6.48 0.44,12.7 -0.05,19.17 0.17,8.11 -4.65,12.63 -12.8,12.55 -18.29,-0.18 -36.58,0.12 -54.87,-0.18 0.42,9.14 0.55,18.3 0.09,27.45 -0.01,0.09 -0.01,0.2 -0.02,0.32 0.1,0 0.19,0 0.27,0 22.11,-0.36 44.23,-0.15 66.34,-0.15 2.7,0 5.39,0 8.09,0 3.92,0 7.12,3.21 7.12,7.13 0,9.09 0.01,18.19 0,27.28 0,7.61 -5.04,12.02 -12.47,11.96 -33.75,-0.24 -67.49,-0.36 -101.24,-0.51 -4.45,-0.02 -8.91,0 -13.36,0 -3.93,0 -7.13,-3.2 -7.13,-7.13 0,-56.56 0,-113.13 0,-169.69 0,-3.71 2.82,-6.79 6.52,-7.1 2.72,-0.23 5.35,-0.64 8.09,-0.65 31.39,-0.04 62.78,-0.02 94.17,-0.02 1.42,0 2.84,0.02 4.26,0.09 4.6,0.24 9.67,0.24 13.03,3.94 3.3,3.63 2.94,8.73 2.87,13.28 -0.07,5.01 -0.12,10.03 0.18,15.03 0.55,9.02 -4.66,13.99 -13.53,13.95 -20.79,-0.11 -41.57,0.24 -62.36,0.06 -0.2,0 -0.48,0 -0.78,0 0.47,6.6 0.25,13.19 0.06,19.79 17.92,-0.19 35.83,0.11 53.75,-0.16 9.07,-0.14 14.09,4.67 13.77,13.59zm-525.8 42.5c-2.58,-0.12 -5.2,0.01 -7.8,0.05 0.11,16.41 -0.02,32.81 0.05,49.21 0.02,6.44 -3.73,10.49 -10.29,10.41 -11.09,-0.15 -22.18,-0.06 -33.27,-0.06 -3.93,0 -7.13,-3.2 -7.13,-7.13 0,-2.24 0,-4.48 0,-6.72 0.02,-48.65 0.02,-97.3 0.07,-145.95 0.01,-11.96 2.45,-15.05 14.44,-16.57 24.26,-3.07 48.43,-4.7 72.57,0.33 11.62,2.42 22.43,6.57 31.64,14.24 10.05,8.36 16.18,19.13 17.74,32.16 1.61,13.52 1.18,26.3 -5.79,38.42 -4.99,8.67 -12.04,14.84 -20.48,19.55 5.89,8.73 11.85,17.42 17.32,26.42 6.89,11.34 12.98,23.16 19.43,34.75 1.26,2.27 1.22,4.84 -0.09,7.08 -1.32,2.24 -3.55,3.51 -6.14,3.51 -6.12,0 -12.24,0.01 -18.35,0 -6.54,0 -13.07,-0.05 -19.61,0.01 -5.57,0.05 -9.09,-2.67 -11.73,-7.34 -7.85,-13.85 -15.98,-27.55 -24.26,-41.15 -2.41,-3.96 -5.38,-7.62 -8.32,-11.22zm-7.85 -59.95c0.08,0.41 0.11,0.83 0.11,1.26 0,4.99 0.01,9.97 0,14.96 8.31,-0.5 16.82,-0.82 24.97,-2.51 7.23,-1.51 9.48,-5.89 9.64,-13 0.16,-7.16 -3.03,-10.2 -9.64,-12.47 -8.01,-2.75 -16.64,-2.86 -25.06,-2.65 0.04,4.81 -0.01,9.61 -0.02,14.41z"/>
  </g>
  <g id="_105553294150912">
   <g>
    <path class="fil1" d="M238.83 571.13c5.46,0.61 8.67,4.78 12.95,7.14 15.07,8.29 31.22,12.95 48.3,14.67 35.91,3.62 70.92,-0.85 105.14,-11.89 7.84,-2.52 15.45,-5.71 23.41,-8.67 -8.67,-2.82 -17.61,-1.35 -26.22,-3.18 10.77,-5.99 41.12,-13.18 60.52,-11.93 -2.66,-15.04 -8.05,-28.92 -15.41,-42.1 -2.96,-5.31 -6.03,-10.58 -7.55,-16.52 -1.49,-5.81 1.55,-9.5 7.41,-8.91 5.1,0.51 9.24,2.63 12.76,6.76 8.34,9.78 10.95,21.57 12.51,33.67 1.36,10.57 2.14,21.21 1.74,31.91 -0.36,9.77 -2.89,19.03 -7.37,27.56 -10.03,19.12 -16.07,39.54 -21.34,60.34 -8.42,33.3 -21.04,64.93 -40.38,93.51 -11.91,17.6 -28.16,30.84 -45.08,43.43 -15.69,11.68 -33.73,19.23 -51.53,29.99 6.3,-1.2 12.43,-2.59 18.42,-4.14l9.06 -2.5c12.59,-3.67 24.66,-8.04 36.62,-12.8 22.89,-9.11 44.41,-20.61 63.86,-35.78 35.46,-27.67 62.05,-61.95 78.71,-104.01 14.51,-36.6 19.17,-74.19 15.62,-113.28 -2.47,-27.27 -11.15,-52.54 -21.69,-77.4 -0.96,-2.26 -2.59,-4.24 -3.46,-6.62 13.38,13.68 21.81,30.35 28.91,48.09 7.15,-10.86 17.44,-17.82 27.99,-24.35 17.54,-10.84 36.65,-18.3 56.44,-23.58 11.45,-3.05 23.43,-4.28 34.9,-7.51 30.35,-8.56 58.66,-21.85 85.82,-37.71 4.14,-2.42 7.8,-5.51 11.57,-8.49 6.17,-4.86 8.47,-10.21 5.82,-18.25 -2.51,-7.62 -1,-15.69 0.77,-23.49 2.71,-11.87 -0.85,-19.88 -10.45,-27.44 -23.78,-18.7 -48.64,-18.02 -74.66,-5.52 -20.63,9.9 -36.23,25.6 -50.66,42.78 -9.18,10.91 -19.14,20.9 -31.81,27.89 -3.4,1.86 -6.77,2.6 -10.5,2.88 -3.81,0.27 -7.66,0.39 -11.45,1.73 9.42,-20.77 28.4,-31.94 45.68,-46.49 -34.23,-5.57 -62.29,3.94 -85.87,27.04 -15.64,15.32 -30.79,31.14 -46.23,46.66 -12.08,12.15 -26.05,21.33 -42,27.82 -19.57,7.96 -38.63,17.19 -58.31,24.83 -22.63,8.79 -45.01,18.24 -68.3,25.41 -16.93,5.21 -33.87,10.33 -51.01,14.7 -28.61,7.26 -57.57,7.23 -86.56,2.8 -7.13,-1.08 -14.13,0.87 -22.31,-1.5 17.11,15.91 76.23,25.12 122.4,20.31 -12.28,7.34 -24.87,14.17 -37.18,22.14l0 0z"/>
    <path class="fil2" d="M301.92 507.13c18.76,-5.51 37.09,-12.3 55.1,-19.83 33.14,-13.86 64.8,-30.76 96.32,-47.93 17.63,-9.6 32.58,-22.59 47.44,-35.88 10.79,-9.64 22.14,-18.67 32.82,-28.96 -3.63,-3.4 -8.75,-3.65 -13.24,-5.35 -7.8,-4.04 -15.93,-7.22 -24.25,-10 -16.18,-5.4 -32.89,-6.83 -49.73,-5.95 -29.03,1.5 -57.53,6.39 -85.34,15.12 -5.4,1.69 -10.14,5.51 -16.17,5.17 -7.15,2.02 -12.36,7.1 -17.57,11.87 -2.96,2.73 -5.52,5.69 -9.45,7.11 -1.39,0.49 -2.21,1.88 -2.91,3.19 -0.77,2.07 -2.61,3.01 -4.29,4.15 -6.23,4.26 -11.07,9.71 -14.22,16.62 -2.51,5.5 -1.93,10.15 1.86,13.72 4.54,4.3 9.81,4.85 12.71,3.16 -10.31,5.19 -18.33,16.78 -24.86,29 -5.89,11.01 -11.6,22.28 -15.28,34.36 -2.15,7.04 -1.05,8.91 6.29,8.86 8.31,-0.06 16.47,1.87 24.77,1.57l0 0z"/>
    <path class="fil3" d="M754.98 413.79c11.79,4.95 23.66,9.46 34.36,16.37 13.03,8.4 25.64,17.35 36.59,28.5 9.14,9.31 16.23,20.09 22.61,31.27 12.61,22.1 26.12,43.64 39.89,65.01 15.26,23.7 29.68,47.9 43.8,72.29 0.99,1.71 1.68,3.66 4.2,5.24 -0.51,-12.08 0.05,-23.63 -1.03,-35.2 -1.88,-20.23 -5.22,-40.19 -10.3,-59.73l-2.6 -9.44c-1.42,-4.87 -2.95,-9.71 -4.6,-14.52 -20.13,-58.75 -54.73,-106.12 -110.26,-136.34 -12.5,-6.8 -25.81,-11.83 -39.18,-16.67 -2.69,-0.97 -3.16,0.1 -3.77,2.12 -2.86,9.24 -4.97,18.27 -1.54,28.12 3.31,9.48 0.19,16.62 -8.17,22.98z"/>
    <path class="fil4" d="M554.71 347.7c9.49,-2.32 19.18,-3.94 28.42,-7.24 8.7,-3.11 9.97,-8.72 3.21,-15.4 -8.18,-8.06 -17.79,-14.26 -27.95,-19.6 -2.22,-0.61 -4.44,-0.59 -6.42,0.63 -4.1,2.5 -7.65,1.16 -11.32,-1.13 -21.68,-13.51 -45.52,-20.49 -70.75,-23.19 -0.54,-0.06 -1.09,0.12 -1.64,0.21 -5.33,1.95 -10.53,-0.59 -15.85,-0.45 -12.05,0.3 -24.06,-0.65 -36.17,0.71 -16.83,1.89 -33.42,4.57 -49.66,9.41 -2.31,0.69 -4.71,1.12 -5.54,3.93 -0.35,1.16 -1.43,2.07 -2.47,1.91 -7.89,-1.19 -10.86,4.89 -14.73,9.69 -1.78,2.6 -3.51,5.19 -3.55,8.53 -0.02,2.08 -1.71,3.11 -2.94,4.48 -2.49,2.78 -1.43,5.69 2.24,6.34 1.85,0.34 3.74,-0.02 5.44,-0.69 8.56,-3.4 17.78,-2.59 27.19,-4.7 -4.9,3.2 -9.39,5.58 -14.44,6.95 -2.19,0.6 -5.56,1.14 -3.94,5.08 4.8,1.83 8.98,-0.96 13.35,-1.96 7.61,-1.74 8.97,-0.62 7.65,7.21 -0.56,3.27 -1.42,6.5 -1.11,9.85 0.42,4.67 3.14,6.98 7.82,6.41 13.61,-1.65 27.12,-3.93 40.64,-6.17 11.58,-1.91 23.68,-2.24 35.4,0.44 4.97,1.13 10.37,-1.03 14.98,2.2 3.29,2.68 7.5,2.82 11.33,3.79 10.34,2.62 19.79,7.42 29.58,11.4 1.77,0.72 3.34,1.63 4.95,-0.14 2.53,-0.75 4.89,-1.81 6.96,-3.49 0.36,-3.53 -2.62,-4.72 -4.75,-6.16 -6.78,-4.6 -12.66,-10.14 -18.91,-16.9 9.29,2.67 17.51,5.92 26.18,7.64 8.99,1.79 17.83,2.66 26.8,0.41l0 0z"/>
    <path class="fil5" d="M301.92 507.13c-1.41,-2.66 -3.91,-1.28 -5.94,-1.55 -4.38,-0.56 -8.75,-1.25 -13.14,-1.46 -12.66,-0.62 -13.26,-0.78 -8.47,-12.34 7.22,-17.5 14.32,-35.23 27.91,-49.18 4.23,-4.34 8.52,-8.63 14.31,-11.22 -4.01,-0.04 -7.63,2.37 -11.92,0.87 -7.62,-2.67 -10.31,-8.39 -6.7,-15.46 3.78,-7.45 9.15,-13.36 16.43,-17.45 1.29,-0.74 2.51,-1.07 0.81,-2.56 -7.75,-3.91 -15.69,-2.9 -22.78,0.85 -18.78,9.93 -36.93,20.97 -53.78,34.01 -1.01,0.77 -1.83,1.83 -3.63,2.09 0.57,-2.7 2,-4.75 3.48,-6.73 13.46,-18.13 28.87,-34.6 43.83,-51.45 6.25,-7.04 12.23,-14.33 18.96,-20.95 1.16,-1.15 2.58,-2.64 1.45,-4.35 -1.22,-1.84 -2.96,-0.56 -4.49,-0.07 -13.42,4.33 -25.8,11 -38.54,16.9 -8.45,4.7 -17.73,8.12 -24.24,15.81 -17.09,17.38 -26.49,39.23 -34.89,61.45 -6.37,16.9 -10.07,34.59 -12.79,52.47 -0.88,5.8 1.33,9.4 5.91,12.4 12.04,7.86 25.54,10.08 39.51,10.31 23.71,0.4 46.22,-5.92 68.71,-12.39l0 0z"/>
    <path class="fil6" d="M260.93 602.62c-11.24,-7.37 -21.1,-13.67 -30.78,-20.25 -7.21,-4.89 -13.57,-10.94 -18.72,-17.86 -2.43,-3.3 -4.22,-2.6 -6.57,-1.42 -9.89,4.96 -19.25,10.87 -27.75,17.87 -25.96,21.35 -43.99,47.81 -50.98,81.15 -2.45,11.68 -1.98,23.39 -0.53,35.1 0.7,5.58 1.67,11.13 2.58,17.16 11.28,-8.88 19.17,-20.02 27.98,-30.34 15.81,-18.53 28.07,-39.72 43.65,-58.4 4.74,-5.67 9.98,-10.74 15.98,-15.13 10.87,-7.95 23.37,-7.83 35.89,-8.05 2.5,-0.04 5.01,0.09 9.25,0.17l0 0z"/>
    <path class="fil7" d="M260.41 368.18c13.32,-5.32 25.9,-12.36 39.48,-17.09 0.63,-0.22 1.26,-0.42 3.26,-1.08 -7.04,8.03 -13.53,14.67 -19.61,21.69 -14.58,16.83 -30.12,32.82 -43.56,50.62 -3.3,4.37 -7.89,8.26 -7.08,15.41 8.06,-5.17 14.52,-11.5 22.25,-16.07 10.75,-6.35 21.44,-12.84 31.92,-19.64 8.77,-5.68 18.25,-6.24 28.14,-5.24 2.23,-2.17 4.68,-3.75 7.8,-4.69 4.05,-1.22 5.02,-6 8.49,-8.37 4.45,-3.05 8.55,-6.6 13.53,-8.87 4.66,-0.12 7.99,-3.4 11.99,-5.08 4.21,-1.78 8.24,-3.98 12.46,-5.78 1.75,-0.75 4.05,-1.19 3.79,-3.96 -3.57,-1.9 -6.77,0.35 -10.12,0.9 -2.48,0.41 -5.15,1.76 -7.22,-0.7 -2.1,-2.5 -1.92,-5.43 -0.79,-8.35 0.93,-2.4 2.09,-4.7 2.67,-7.24 0.87,-3.88 -0.77,-5.97 -4.54,-6.69 -2.97,-0.56 -5.85,-0.1 -8.72,0.69 -8.16,2.25 -16.31,4.52 -24.47,6.74 -2.12,0.57 -4.23,1.43 -6.47,0.57 -5.01,0.19 -10.15,-0.14 -13.72,2.34 1.75,-0.72 2.63,-3.18 3.15,-5.85 0.33,-1.63 0.7,-3.24 1.36,-4.78 3.09,-7.11 3.08,-7.11 -4.47,-7.86 -4.06,-0.18 -7.45,1.5 -10.7,3.67 -9.75,6.48 -19.26,13.28 -28.13,20.95 -0.9,0.79 -1.63,2.08 -3.17,1.84 -3.75,4.32 -7.5,8.62 -11.26,12.93 -0.25,3.58 2.03,3.22 4.25,2.63 3.29,-0.88 6.41,-2.18 9.48,-3.64l0.01 0z"/>
    <path class="fil8" d="M179.6 502.62c-13.22,-7.06 -27.37,-10.54 -41.28,-14.68 -5.46,-1.61 -10.87,-3.33 -16.63,-3.71 -6.93,-0.47 -10.41,3.18 -7.5,9.26 3.86,8.06 8.85,15.58 13.39,23.32 0.78,1.34 1.96,1.21 3.36,0.93 8.33,-1.61 16.77,-2.02 25.23,-2.53 13.43,-0.8 13.42,-0.99 23.43,-12.59l0 0z"/>
    <path class="fil9" d="M300.57 330.67c1.12,2.58 3.44,-0.66 5.19,1.72 -5.45,3.95 -2.29,12.19 -8.81,17.25 5.96,-1.07 11.01,-1.99 16.04,-2.89 1.85,0.79 3.6,0.09 5.35,-0.39 8.79,-2.41 17.59,-4.8 26.36,-7.29 1.86,-0.53 4.1,-0.56 4.86,-2.94 -0.43,-3.15 -2.81,-2.37 -4.68,-2.07 -3.45,0.55 -6.82,1.56 -10.12,2.66 -5.04,1.68 -9.07,0.35 -12.3,-3.63 -2.37,-2.94 -5,-5.35 -8.82,-6.2 -3.03,-0.69 -2.28,-3.29 -2.63,-5.37 -0.44,-2.78 1.66,-2.95 3.37,-3.35 4.23,-1.01 8.93,-1.03 10.78,-6.27 0.43,-1.21 1.88,-1.11 2.85,-0.36 7.06,5.5 12.19,1.99 16.9,-3.56 1.44,-1.67 2.88,-3.34 4.3,-5.01 2.13,-2.49 3.78,-5.15 8.15,-3.38 2.49,1.01 6.13,0.27 5.67,-4.03 -0.28,-2.56 1.6,-2.13 2.75,-2.46 6.55,-1.9 13.11,-4.94 19.75,-5.16 8.76,-0.32 16.72,-3.86 25.12,-4.57 9.98,-0.85 20.21,-0.17 30.12,-0.91 9.65,-0.73 19.02,3.25 28.51,0.41 -1.05,-2.61 -3.54,-1.17 -5.28,-1.89 -25.02,-2.08 -50.01,-1.49 -74.6,3.54 -7.13,1.46 -14.19,3.11 -21.18,5.03 -14.3,3.95 -28.27,9.03 -41.61,15.85 -6.67,3.4 -13.81,5.9 -19.74,10.66 -0.93,1.78 -2.92,2.08 -4.4,3.09 -3.89,2.67 -5.98,5.75 -3.05,10.38 0.3,0.47 0.68,0.86 1.15,1.14l0 0z"/>
    <path class="fil10" d="M373.33 360.12c-9.72,4.36 -19.15,9.29 -28.3,14.73 2.51,1.16 4.76,-0.23 6.88,-1.04 31.99,-12.34 65.4,-17.53 99.39,-19.04 22.63,-1.01 44.23,4.27 64.78,13.84 1.23,0.57 2.58,2.64 4.28,0.57 -1.67,-0.34 -2.09,-1.47 -1.93,-2.99 -2.59,1 -4.76,-0.31 -6.77,-1.5 -11.72,-6.92 -24.51,-10.83 -37.66,-13.77 -6.12,-3.04 -12.87,-2.25 -19.34,-3.05 -14.26,-1.77 -28.4,-0.91 -42.56,1.85 -10.82,2.1 -21.74,3.65 -32.37,6.62 -2.42,0.67 -5.16,1 -6.4,3.78l0 0z"/>
    <path class="fil11" d="M464 280.99c1.77,0.62 3.52,1.25 5.28,1.88 11.56,1.03 22.72,3.83 33.76,7.23 13.9,4.29 27.43,9.39 39.41,17.88 2.88,2.05 5.93,2.2 8.79,0.34 2.25,-1.45 4.81,-1.81 7.15,-2.86 -28.92,-17.94 -60.95,-23.92 -94.39,-24.47l0 0z"/>
    <path class="fil12" d="M554.71 347.7c-12.77,0.57 -25.28,-0.88 -37.56,-4.48 -5.58,-1.63 -10.79,-4.63 -18.04,-5.1 4.9,7.13 10.39,12.21 16.52,16.64 3.42,2.47 7.26,4.38 9.76,7.95 5.95,-1.5 10.33,-5.82 15.48,-8.76 4.44,-2.53 8.95,-4.77 13.84,-6.25z"/>
    <path class="fil13" d="M299.99 329.66c-1.63,-6.02 2.02,-9.22 6.38,-12.09 0.35,-0.23 0.35,-0.99 0.5,-1.51 -10.42,4.62 -18.67,12.15 -26.69,19.97 1.49,2.21 3.62,1.91 5.24,0.67 4.41,-3.35 9.52,-5.09 14.57,-7.04l0 0z"/>
    <path class="fil14" d="M299.99 329.66c-4.93,1.33 -9.93,2.42 -14.11,5.73 -1.59,1.25 -3.67,1.62 -5.71,0.64 -8.03,6.07 -15.11,13.16 -22.24,20.23 3.77,0.5 5.74,-2.63 8.29,-4.35 7.43,-5.04 14.65,-10.41 21.9,-15.73 3.76,-2.77 7.83,-4.73 12.45,-5.51 -0.2,-0.33 -0.39,-0.67 -0.58,-1.01z"/>
    <path class="fil15" d="M260.41 368.18c-3.1,0.83 -6.21,1.62 -9.3,2.49 -1.85,0.51 -3.55,0.79 -4.44,-1.48 -4.06,4.3 -8.44,8.33 -11.2,13.7 8.31,-4.9 16.62,-9.8 24.94,-14.71l0 0z"/>
    <path class="fil16" d="M698.94 351.78c9.84,4.07 19.63,4.81 28.24,9.21 1.31,0.66 2.86,0.98 4.02,1.84 2.64,1.97 6.77,2.89 6.43,7.3 -0.39,5.09 -2.57,9.47 -7.66,11.13 -14.7,4.81 -30.3,4.66 -42.04,-9.98 -1.99,-2.48 -4.02,-4.97 -7.17,-6.91 4.31,17.79 21.18,28.9 38.29,25.73 4.52,-0.83 9.16,-1 13.55,-2.54 1.82,-0.64 3.96,-0.35 5.34,0.68 4.32,3.19 6.15,0.3 7.4,-2.98 3.8,-9.98 5.53,-20.17 2.46,-30.79 -0.83,-2.9 -1.88,-3.91 -4.99,-3.18 -4.84,1.13 -9.87,1.4 -14.81,0.78 -9.32,-1.16 -18.63,-0.35 -29.06,-0.29l0 0z"/>
    <path class="fil17" d="M373.33 360.12c19.48,-5.66 38.99,-11.1 59.45,-11.95 12.38,-0.52 24.64,0.38 36.85,2.41 1.43,0.24 2.91,0.23 4.37,0.34 -0.76,-2.23 -2.78,-3.44 -4.67,-3.29 -11.72,0.93 -23.2,-3.25 -34.83,-1.85 -6.27,0.76 -12.58,0.98 -18.89,2.15 -8.96,1.65 -17.85,4.92 -27.32,3.76 -2.24,-0.28 -4.65,0.98 -6.99,1.47 -4,0.83 -5.83,-0.87 -6.01,-4.91 -0.22,-4.87 1.69,-9.38 1.94,-14.17 0.27,-4.95 -1.66,-6.79 -6.55,-5.55 -5.54,1.4 -11.05,3 -16.57,4.51 -2.18,-0.9 -4.04,-0.68 -5.35,1.51 0.22,3.02 -2.31,2.87 -4.08,3.38 -10.55,2.98 -21.12,5.88 -31.69,8.81 1.45,2.65 3.55,1.23 5.36,0.74 8.38,-2.24 16.74,-4.58 25.11,-6.88 1.07,-0.3 2.13,-0.66 3.21,-0.87 3.29,-0.61 7.39,-1.45 9.48,0.95 2.12,2.45 -0.57,5.9 -1.88,8.58 -1.34,2.73 -2.41,5.14 -1.67,8.35 1.24,5.49 3.39,7.03 8.94,5.59 3.93,-1.01 7.86,-2.05 11.79,-3.08l0 0z"/>
    <path class="fil18" d="M348.76 334.55c1.78,-0.5 3.57,-1.01 5.35,-1.51 -0.23,-2.7 1.98,-2.67 3.64,-3.27 3.28,-1.18 7.51,-0.8 9.75,-3.47 2.54,-3.06 6.54,-2.27 9.41,-4.97 -1.77,-1.65 -3.71,-2.63 -5.9,-2.03 -9.01,2.46 -18.68,1.29 -27.45,5.09 -1.31,0.57 -2.86,0.79 -4.3,0.77 -1.14,0 -2.02,-0.94 -2.29,-2.08 -0.27,-1.21 0.78,-1.54 1.64,-1.82 3.16,-1.06 4.55,-3.23 3.55,-6.4 -1.02,-3.22 2.51,-4.34 2.75,-6.88 -1.72,0.34 -2.76,1.6 -4.04,2.67 -3.83,3.23 -8.14,2.87 -11.56,-0.68 -2.16,-2.23 -5.97,-1.71 -6.2,1.15 -0.31,3.84 -2.23,4.38 -5.39,4.57 -2.34,0.15 -4.7,0.94 -6.93,1.78 -1.49,0.56 -5.71,0.72 -1.24,3.57 0.14,0.09 0.35,0.34 0.32,0.41 -3.92,8.17 3.66,6.37 7.08,8.09 1.96,1 2.69,2.98 3.98,4.49 3.78,4.44 7.93,6.74 14.01,4.39 4.44,-1.71 9.2,-2.61 13.82,-3.87l0 0z"/>
   </g>
   <g>
    <path class="fil19" d="M1153.74 434.33c0,-22.61 0,-45.22 0,-68.2 9.16,0 17.86,0 26.97,0 0.01,39.28 0,78.69 0,118.64 -6.84,0 -13.75,0.22 -20.6,-0.18 -1.42,-0.09 -3.08,-2.25 -3.98,-3.83 -13.95,-24.33 -29.09,-47.85 -47.2,-69.35 -1.03,-1.2 -2.09,-2.37 -4.21,-3.2 0,25.6 0,51.2 0,77.15 -8.16,0 -15.69,0.1 -23.22,-0.16 -0.86,-0.03 -2.31,-2.13 -2.36,-3.32 -0.36,-8.47 -0.54,-16.95 -0.56,-25.42 -0.06,-28.77 -0.02,-57.54 -0.11,-86.31 -0.01,-3.24 0.88,-4.43 4.36,-4.49 17.16,-0.28 17.53,-0.68 28.17,12.88 12.88,16.43 25.04,33.42 37.5,50.18 1.43,1.91 2.77,3.9 4.15,5.85 0.37,-0.08 0.73,-0.16 1.09,-0.24l0 0z"/>
    <path class="fil20" d="M840.75 425.57c-0.03,0 -0.05,0 -0.08,0 0,5.6 0.01,11.21 -0.01,16.81 0,5.76 0.08,11.52 -0.14,17.26 -0.11,3.3 0.97,4.77 4.4,4.53 3.94,-0.28 7.9,-0.16 11.83,-0.42 17.62,-1.12 28.4,-9.87 32.8,-26.84 2.34,-9.02 1.61,-18.02 -0.98,-26.89 -3.62,-12.5 -12.15,-19.71 -24.78,-21.71 -6.23,-0.98 -12.67,-0.59 -19.01,-0.99 -3.17,-0.2 -4.16,0.96 -4.11,4.18 0.2,11.36 0.08,22.72 0.08,34.07l0 0zm-27.2 58.58c0,-1.72 0,-3.35 0,-4.96 0,-35.59 0.09,-71.16 -0.09,-106.75 -0.03,-4.36 1.42,-5.63 5.57,-6.05 17.83,-1.82 35.62,-3.27 53.41,0.17 27.67,5.33 43.98,24.09 45.73,52.05 0.67,10.57 -0.14,20.85 -3.76,30.83 -5.68,15.64 -16.47,25.91 -32.15,31.64 -18.85,6.87 -38.11,5.84 -57.49,4.07 -3.57,-0.33 -7.16,-0.64 -11.22,-1l0 0z"/>
    <path class="fil19" d="M1028.5 424.5c-1.32,-6 -2.04,-12.21 -4.07,-17.95 -7.56,-21.43 -35.1,-27.05 -50.83,-10.61 -13.38,14 -13.03,46.21 0.64,59.94 11.02,11.07 31.29,10.95 42.4,-0.04 8.76,-8.66 11,-19.46 11.86,-31.34l0 0zm-92.29 0.53c-0.31,-20.21 6.8,-37.16 22.6,-49.87 21.44,-17.25 62.56,-18.12 83.36,9.2 20.87,27.4 17.21,71.1 -9.13,91.04 -19.31,14.63 -41.44,15.83 -63.35,6.38 -19.49,-8.42 -29.59,-24.67 -32.5,-45.45 -0.52,-3.74 -0.66,-7.52 -0.98,-11.3l0 0z"/>
    <path class="fil20" d="M1825.87 424.5c-0.28,-2.72 -0.55,-7.11 -1.22,-11.43 -2.23,-14.42 -13.92,-25.35 -28.21,-26.59 -13.54,-1.17 -26.31,7.42 -31.2,20.96 -3.88,10.73 -4.26,21.77 -1.38,32.63 7.4,27.81 37.86,29.26 51.3,15.63 8.09,-8.21 10.45,-18.48 10.71,-31.2l0 0zm26.97 1.62c-0.02,22.79 -7.31,42.27 -28.33,53.57 -34.37,18.47 -82.12,4.21 -88.99,-42.74 -1.94,-13.28 -0.81,-26.26 4.28,-38.74 12.88,-31.55 45.87,-39.68 70.68,-33.16 24.24,6.36 40.67,26.98 42.33,52.46 0.18,2.86 0.03,5.74 0.03,8.61l0 0z"/>
    <path class="fil20" d="M1524.16 462.92c0,6.77 0,12.94 0,19.11 -0.01,2.46 -1.21,3.4 -3.7,3.38 -23.64,-0.16 -47.29,-0.24 -70.93,-0.35 -3.02,-0.02 -6.02,-0.01 -9.39,-0.01 0,-39.55 0,-78.97 0,-118.86 1.71,-0.15 3.48,-0.43 5.25,-0.44 21.99,-0.03 43.97,-0.02 65.96,-0.02 0.91,0 1.81,0.02 2.73,0.07 6.54,0.33 6.49,0.33 6.41,7 -0.06,3.63 -0.1,7.27 0.12,10.89 0.21,3.37 -1.1,4.5 -4.46,4.49 -14.56,-0.08 -29.12,0.16 -43.67,0.04 -3.95,-0.04 -5.89,0.86 -5.58,5.27 0.34,4.67 0.15,9.38 0.02,14.07 -0.09,3.25 1.11,4.56 4.53,4.52 12.73,-0.15 25.47,0.08 38.2,-0.13 3.66,-0.05 4.81,1.12 4.58,4.68 -0.29,4.38 -0.23,8.79 -0.04,13.17 0.13,2.98 -0.95,3.94 -3.91,3.91 -12.89,-0.12 -25.78,0.09 -38.66,-0.13 -3.85,-0.07 -5.01,1.16 -4.83,4.91 0.3,6.34 0.4,12.72 0.07,19.06 -0.21,4.13 0.91,5.55 5.25,5.47 15.46,-0.25 30.93,-0.09 46.4,-0.09 1.64,0 3.29,0 5.65,0l0 -0.01z"/>
    <path class="fil20" d="M1257.01 397.25c-1.28,2.53 -2.43,4.26 -3.1,6.18 -9.22,26.21 -18.35,52.47 -27.58,78.68 -0.4,1.14 -1.5,2.87 -2.31,2.89 -8.7,0.2 -17.4,0.13 -26.74,0.13 0.65,-2.19 1.04,-3.75 1.59,-5.26 12.8,-36.02 26.11,-71.85 41.96,-106.7 2.55,-5.61 5.36,-7.95 11.32,-7.47 4.97,0.41 10.03,-0.16 14.97,0.37 1.79,0.19 4.23,1.93 4.92,3.58 10.58,25.23 21.1,50.48 31.24,75.88 5.07,12.73 9.37,25.76 14.21,39.19 -2,0.23 -3.6,0.56 -5.2,0.57 -5.75,0.02 -11.54,-0.42 -17.27,0 -5.07,0.36 -7.14,-1.76 -8.64,-6.35 -5.99,-18.22 -12.3,-36.35 -18.63,-54.45 -2.79,-7.99 -5.92,-15.85 -8.93,-23.76 -0.35,-0.93 -0.91,-1.76 -1.81,-3.48l0 0z"/>
    <path class="fil20" d="M1323.64 366.17c1.73,-0.13 3.35,-0.38 4.98,-0.38 29.12,-0.06 58.25,-0.1 87.37,-0.09 6.42,0 6.43,0.1 6.42,6.56 -0.01,3.93 -0.18,7.87 -0.04,11.81 0.1,3.01 -0.71,4.28 -4.1,4.21 -9.25,-0.23 -18.51,0.07 -27.76,-0.07 -3.46,-0.05 -4.71,0.89 -4.69,4.64 0.16,28.94 0,57.87 0.14,86.81 0.02,4.26 -1.2,6.04 -5.71,5.83 -6.64,-0.31 -13.29,-0.08 -20.57,-0.08 0,-2 0,-3.76 0,-5.52 0,-28.79 -0.08,-57.57 0.11,-86.35 0.03,-4.26 -1.22,-5.39 -5.37,-5.26 -10.13,0.28 -20.29,0.09 -30.78,0.09 0,-7.5 0,-14.66 0,-22.2l0 0z"/>
    <path class="fil20" d="M1668.95 365.52c0,31.96 -0.01,63.86 -0.01,96.12 1.42,0.13 2.56,0.33 3.69,0.33 15.01,0.06 30.01,0.19 45.01,0.05 3.5,-0.04 4.46,1.12 4.3,4.45 -0.26,5.14 0.08,10.3 -0.27,15.42 -0.08,1.2 -1.88,3.28 -2.91,3.28 -25.28,0.19 -50.57,0.15 -76.24,0.15 0,-39.83 0,-79.62 0,-119.8 8.96,0 17.41,0 26.43,0l0 0z"/>
    <path class="fil20" d="M1624.42 462.49c0,7.57 0,14.93 0,22.7 -6.53,0 -12.84,0 -19.13,0 -18.19,0 -36.38,-0.26 -54.57,0.18 -5.05,0.12 -5.68,-1.53 -5.67,-5.79 0.07,-33.92 -0.05,-67.85 -0.1,-101.78 0,-0.91 0.02,-1.82 0.01,-2.73 -0.13,-9.37 -0.13,-9.36 9.54,-9.33 5.55,0.02 11.11,0.01 16.89,0.01 0.01,3.7 0,6.55 0,9.39 0.09,27.42 0.25,54.83 0.18,82.25 -0.02,3.62 0.85,4.63 4.5,4.59 15.01,-0.13 30.02,0.06 45.04,0.15 1.02,0.01 2.04,0.22 3.31,0.36l0 0z"/>
    <path class="fil21" d="M1224.75 607.93c0.3,-8.41 -0.57,-16.67 -3.36,-24.78 -5.71,-16.62 -20.09,-27.11 -37.4,-28.02 -21.96,-1.15 -35.56,12.43 -41.01,26.32 -5.84,14.89 -5.62,30.26 -2.32,45.54 4.38,20.34 21.87,35.42 44.07,33.59 13.08,-1.06 23.71,-6.29 31.03,-17.2 7.15,-10.64 9.52,-22.7 8.99,-35.45l0 0zm-230.43 -29.25c0.04,0 0.08,0 0.12,0 0,5.38 0.01,10.76 -0.01,16.14 -0.01,6.1 0,6.42 6.07,6.03 9.19,-0.59 18.52,-0.88 27.48,-2.74 10.4,-2.16 15.08,-9.16 15.32,-19.82 0.21,-9.85 -4.35,-15.89 -14.46,-19.37 -10.32,-3.54 -20.96,-3.25 -31.61,-2.91 -2.14,0.07 -3,1.11 -2.95,3.39 0.14,6.42 0.04,12.85 0.04,19.28l0 0zm-144.29 1.56c-0.02,0 -0.03,0 -0.05,0 0,6.77 0.01,13.56 -0.01,20.33 0,1.58 -0.14,3.13 2.17,3.16 11.48,0.13 22.9,0.21 34.05,-3.37 7.61,-2.44 12.07,-7.46 13.11,-15.2 0.52,-3.87 0.66,-8.02 -0.17,-11.79 -1.56,-6.93 -5.56,-12.19 -12.8,-14.42 -10.7,-3.29 -21.66,-3.32 -32.69,-3.03 -2.66,0.07 -3.66,1.36 -3.64,3.98 0.1,6.78 0.03,13.56 0.03,20.34l0 0zm692.12 80.92c0,9.65 0,18.47 0,27.27 -0.01,3.53 -1.73,4.87 -5.3,4.84 -33.75,-0.23 -67.51,-0.36 -101.25,-0.51 -4.3,-0.02 -8.6,0 -13.4,0 0,-56.45 0,-112.75 0,-169.69 2.45,-0.21 4.97,-0.62 7.49,-0.62 31.38,-0.05 62.77,-0.03 94.16,-0.03 1.29,0 2.6,0.02 3.89,0.09 9.34,0.48 9.28,0.48 9.15,10 -0.08,5.18 -0.14,10.39 0.19,15.56 0.28,4.79 -1.58,6.42 -6.38,6.39 -20.78,-0.1 -41.56,0.25 -62.34,0.07 -5.64,-0.05 -8.41,1.21 -7.96,7.51 0.48,6.66 0.22,13.4 0.03,20.09 -0.12,4.65 1.58,6.51 6.46,6.45 18.18,-0.21 36.36,0.1 54.54,-0.17 5.21,-0.08 6.85,1.59 6.53,6.67 0.74,6.63 0.43,12.55 -0.05,18.8 0.19,4.25 -1.35,5.63 -5.59,5.58 -18.39,-0.17 -36.8,0.13 -55.19,-0.19 -5.49,-0.09 -7.13,1.67 -6.89,7 0.42,9.07 0.56,18.18 0.11,27.23 -0.3,5.88 1.28,7.91 7.48,7.8 22.07,-0.35 44.15,-0.14 66.23,-0.14 2.35,0 4.71,0 8.09,0l0 0zm174.2 -138.24c2.46,-0.2 4.77,-0.54 7.09,-0.55 41.47,-0.08 82.94,-0.14 124.41,-0.12 9.13,0 9.15,0.13 9.13,9.32 -0.01,5.61 -0.25,11.23 -0.05,16.83 0.15,4.28 -1,6.11 -5.84,5.98 -13.17,-0.31 -26.35,0.12 -39.52,-0.07 -4.93,-0.08 -6.72,1.25 -6.69,6.61 0.22,41.19 0.02,82.38 0.2,123.59 0.02,6.07 -1.7,8.6 -8.13,8.3 -9.44,-0.45 -18.91,-0.12 -29.26,-0.12 0,-2.84 0,-5.35 0,-7.85 0,-40.99 -0.14,-81.97 0.13,-122.95 0.04,-6.07 -1.74,-7.67 -7.64,-7.5 -14.43,0.41 -28.89,0.14 -43.83,0.14 0,-10.68 0,-20.88 0,-31.61l0 0zm-76.56 -0.5c-11.13,0 -21.63,2.18 -31.46,6.61 -9.84,4.4 -18.47,10.52 -25.85,18.33 -7.4,7.84 -13.18,16.92 -17.36,27.24 -4.21,10.31 -6.32,21.32 -6.32,33.03 0,11.79 2.11,22.84 6.32,33.15 4.18,10.31 9.96,19.36 17.36,27.16 7.38,7.76 16.01,13.85 25.85,18.28 9.83,4.4 20.33,6.62 31.46,6.62 9.6,0 18.69,-1.65 27.32,-4.94 8.62,-3.28 16.39,-7.88 23.38,-13.8 6.98,-5.87 12.87,-12.81 17.68,-20.74l-20.92 -12.75 -7.81 -4.71c-4.34,6.73 -9.99,12.11 -16.9,16.14 -6.95,3.99 -14.52,5.99 -22.75,5.99 -8.79,0 -16.79,-2.25 -24.09,-6.77 -7.29,-4.56 -13.08,-10.65 -17.36,-18.25 -4.34,-7.63 -6.49,-16.09 -6.49,-25.38 0,-9.25 2.15,-17.67 6.49,-25.27 4.28,-7.64 10.07,-13.72 17.36,-18.24 7.3,-4.56 15.3,-6.82 24.09,-6.82 7.38,0 14.24,1.64 20.64,4.89 6.36,3.24 11.75,7.68 16.16,13.31l10.66 -6.53 18.26 -11.05c-7.45,-10.93 -16.89,-19.56 -28.29,-25.97 -11.4,-6.37 -23.89,-9.53 -37.43,-9.53l0 0zm-253.93 0c-3.82,0.29 -7.38,1.48 -10.65,3.53 -3.24,2.06 -5.19,4.69 -5.82,7.89l0 22.76 0 29.46 0 38.54c0,6.24 -1.48,11.95 -4.41,17.13 -2.93,5.18 -6.86,9.32 -11.74,12.41 -4.92,3.08 -10.39,4.64 -16.32,4.64 -7.18,0 -13.54,-2.22 -19.16,-6.7 -5.58,-4.44 -9.49,-10.18 -11.72,-17.26l-33.29 0c1.67,10.98 5.55,20.87 11.55,29.62 6.05,8.71 13.62,15.66 22.76,20.75 9.17,5.1 19.12,7.65 29.86,7.65 11.9,0 22.75,-3.08 32.59,-9.21 9.84,-6.16 17.68,-14.38 23.57,-24.73 5.86,-10.36 8.79,-21.78 8.79,-34.3l0 -102.18 -16.01 0 0 0zm-572.29 167.46c0,-2.81 0,-5.13 0,-7.45 0.07,-48.76 0.12,-97.52 0.2,-146.28 0.01,-7.39 0.06,-7.56 7.36,-8.45 19.2,-2.35 38.45,-3.91 57.78,-1.92 11.68,1.2 22.98,3.67 33.7,8.92 12.45,6.11 20.08,15.77 23.31,29 3.4,13.9 2.83,27.53 -3.21,40.74 -5.59,12.24 -15.79,19.09 -27.76,23.76 -11.13,4.36 -22.84,5.79 -34.71,6.28 -6.08,0.25 -12.15,0.55 -18.23,0.71 -2.29,0.06 -2.14,1.3 -2.13,3.02 0.07,16.01 -0.02,32.03 0.07,48.06 0.01,2.71 -0.8,3.7 -3.62,3.67 -10.74,-0.14 -21.5,-0.06 -32.76,-0.06l0 0zm277.99 0.07c-6.93,0 -12.64,0.01 -18.34,0 -6.56,0 -13.12,-0.06 -19.67,0.01 -2.79,0.01 -4.05,-1.22 -5.47,-3.73 -7.89,-13.91 -16.06,-27.68 -24.37,-41.35 -2.73,-4.47 -6.08,-8.58 -9.4,-12.65 -0.87,-1.09 -2.68,-1.88 -4.1,-1.95 -3.85,-0.23 -7.73,0.14 -11.58,0 -3.05,-0.11 -4.32,0.69 -4.29,4.11 0.16,17.42 0,34.84 0.08,52.28 0.01,2.38 -0.5,3.28 -3.07,3.24 -10.99,-0.14 -21.98,-0.06 -33.36,-0.06 0,-2.39 0,-4.54 0,-6.71 0.02,-48.65 0.02,-97.3 0.07,-145.95 0,-8.26 0.06,-8.47 8.2,-9.51 23.41,-2.96 46.85,-4.63 70.23,0.24 10.41,2.17 20.21,5.82 28.53,12.74 8.66,7.2 13.88,16.32 15.22,27.52 1.4,11.75 1.3,23.26 -4.89,34.02 -5.2,9.05 -13.02,14.83 -22.2,19.15 -0.93,0.42 -1.84,0.88 -2.52,1.2 7.32,11.05 14.87,21.74 21.65,32.89 6.69,11.02 12.62,22.51 19.28,34.51l0 0zm171.48 -84.35c-0.49,18.93 -3.11,35.59 -12.21,50.75 -12.81,21.31 -32,32.52 -56.21,35.67 -15.07,1.96 -29.95,0.87 -44.21,-4.71 -27.99,-10.95 -43.05,-32.18 -48,-61.17 -2.49,-14.69 -2.29,-29.4 1.65,-43.81 8.21,-30.01 26.95,-50.03 57.66,-56.95 28.32,-6.38 54.57,-1.41 76.48,18.78 13.77,12.69 20.83,29.1 23.6,47.39 0.78,5.2 0.94,10.47 1.24,14.05l0 0z"/>
   </g>
  </g>
 </g>
</svg>
